<svg xmlns:rdf="http://www.w3.org/1999/02/22-rdf-syntax-ns#" xmlns="http://www.w3.org/2000/svg" xmlns:cc="http://creativecommons.org/ns#" xmlns:dc="http://purl.org/dc/elements/1.1/" xmlns:svg="http://www.w3.org/2000/svg" xmlns:inkscape="http://www.inkscape.org/namespaces/inkscape" xmlns:sodipodi="http://sodipodi.sourceforge.net/DTD/sodipodi-0.dtd" xmlns:ns1="http://sozi.baierouge.fr" xmlns:xlink="http://www.w3.org/1999/xlink" id="svg3124" viewBox="0 0 314.62 487.06" version="1.1">
  <g id="layer1" transform="translate(-22.302 3.3923)">
    <path id="path3143" d="m277.46 483c-0.26398-0.68794 0.94997-1.6677 2.0663-1.6677 0.91841 0 7.6846-3.2785 10.571-5.1222 2.6832-1.7137 2.7422-1.7972 2.4152-3.4171-0.18438-0.91323-0.39445-5.6098-0.46684-10.437-0.16974-11.32-0.51537-18.145-1.069-21.111-0.45726-2.4497-0.73941-14.353-0.33053-13.944 0.29913 0.29911 0.68154 3.3887 0.98263 7.9386 0.13225 1.9985 0.37537 4.4876 0.54028 5.5313 0.1649 1.0437 0.34829 3.4987 0.40754 5.4556 0.62518 20.651 1.0538 26.547 1.9546 26.893 0.90576 0.34755 4.3343-0.9935 6.0397-2.3624l1.357-1.0892-0.0168-5.9092c-0.009-3.2501-0.25638-7.3876-0.54914-9.1945-0.29277-1.8069-0.51337-4.5822-0.49022-6.1673 0.0231-1.5851-0.0764-6.1909-0.22113-10.235-0.14476-4.0443-0.26038-9.4312-0.25691-11.971l0.006-4.6178-1.5418 0.6433c-2.7061 1.1291-10.724 3.611-11.666 3.611-0.4997 0-1.6749 0.32023-2.6117 0.71161-2.0931 0.87452-2.208 0.87675-2.208 0.0422 0-2.1637 7.6254-5.2507 14.284-5.7823 2.1895-0.17487 4.2288-0.51293 4.5317-0.75137 0.9818-0.77261 1.1483 0.37597 1.1282 7.7818-0.0291 10.741 0.39497 23.403 0.91017 27.174 0.24951 1.8265 0.59246 5.9944 0.76212 9.2621l0.30847 5.9413-1.3555 0.6959c-0.74552 0.38275-2.4229 1.353-3.7275 2.1561-1.3046 0.80312-3.1192 1.7408-4.0324 2.0838-2.3384 0.87822-8.053 3.7712-9.6067 4.8634-0.71753 0.50439-1.3046 0.81023-1.3046 0.67963 0-0.13056-1.0889 0.49533-2.4197 1.3909-2.6084 1.7553-3.9624 2.0402-4.3907 0.924zm-4.5753-1.1933c0-0.26092-0.30243-0.47441-0.67207-0.47441s-0.74323-0.20029-0.83021-0.44513c-0.087-0.24484-2.0081-1.7926-4.2691-3.4394s-7.0394-5.2359-10.619-7.9756c-6.696-5.1254-8.8739-6.7557-13.943-10.437-1.6168-1.1742-4.047-3.0112-5.4004-4.0823-2.1793-1.7248-10.128-7.0531-13.893-9.3128-1.5387-0.92352-5.4203-3.4953-9.3438-6.1909-2.9194-2.0057-4.1379-3.2551-3.4138-3.5003 0.30227-0.10238 0.47441-5.3674 0.47441-14.511 0-7.8926 0.12008-18.513 0.26684-23.601 0.33324-11.553 0.22462-12.642-1.2985-13.025-1.7183-0.43128-13.312-0.86749-14.583-0.54865-1.0648 0.26724-1.1175 0.52387-1.6428 7.992-0.29852 4.2438-0.87158 10.374-1.2735 13.623-0.4019 3.249-0.82844 7.412-0.94785 9.2509-0.32767 5.0459-1.6867 15.767-2.3886 18.844-0.25493 1.1174-0.13298 1.2869 1.0242 1.4232 1.1177 0.13169 1.6042 0.73082 3.2622 4.0167 1.0717 2.124 2.638 4.5671 3.4807 5.429 0.84269 0.86189 2.0077 2.2612 2.589 3.1095 0.58127 0.84833 1.5436 1.7642 2.1386 2.0352 1.3588 0.61915 3.8087 4.4302 4.2047 6.5409 0.2135 1.138 0.077 1.8413-0.47598 2.4523-0.42643 0.47118-0.71864 1.3397-0.64937 1.9301 0.0693 0.59035-0.19426 1.2305-0.58564 1.4226-0.39138 0.19204-1.1686 0.58304-1.7271 0.86892-1.3349 0.68319-6.6312-0.0394-10.133-1.3823-2.377-0.91162-6.6417-4.51-6.6417-5.604 0-0.21291-0.74789-1.6291-1.662-3.1471-1.0969-1.8216-1.5023-2.9197-1.1923-3.2297 0.47802-0.47806 2.8543 1.3387 2.8543 2.1822 0 0.22648 0.21378 0.66958 0.47507 0.98473 0.26128 0.31514 1.3968 1.8539 2.5232 3.4194 1.3783 1.9155 2.818 3.2642 4.4019 4.1239 2.9103 1.5795 7.6761 2.433 9.6817 1.7339 2.7237-0.94947 1.3325-1.5884-4.2815-1.9663-1.4398-0.0969-3.2453-0.47844-4.0122-0.84785-1.4596-0.70302-6.0758-5.9836-7.0152-8.0249-0.30021-0.65231-1.192-2.1467-1.9818-3.3208-0.78978-1.1742-1.3804-2.3856-1.3126-2.6921 0.0679-0.30646-0.0933-0.69116-0.35817-0.85483-0.28299-0.17491-0.36506 0.006-0.19903 0.43864 0.28471 0.74192-0.33211 1.0138-0.93418 0.41169-0.17849-0.17848-1.2453-0.3633-2.3706-0.41074-2.4757-0.10433-4.3813-1.2586-4.7943-2.9041-0.16805-0.66953-0.15904-2.7041 0.02-4.5213 0.27244-2.7648 0.48909-3.3651 1.3278-3.6788 0.77714-0.29072 1.5223 0.038 3.3176 1.4626 1.2735 1.0107 2.7885 1.8376 3.3667 1.8376 1.2147 0 4.7843-3.2484 4.1984-3.8207-0.21579-0.21073-2.1002-0.8497-4.1876-1.4199-5.7162-1.5614-5.2087-0.6479-5.2877-9.5182-0.0381-4.2765-0.23441-10.017-0.43625-12.757-0.41062-5.5739-0.55897-10.112-0.63126-19.31l-0.0492-6.2638-2.0162 0.0549c-3.4746 0.0946-16.452-0.49648-16.893-0.7695-0.39652-0.24507-1.2914 4.1589-1.051 5.1724 0.0613 0.25828-0.11461 2.0729-0.3908 4.0324-0.27619 1.9596-0.61834 5.6976-0.76033 8.3069-0.14199 2.6092-0.4617 5.598-0.71046 6.6417s-0.45739 3.5416-0.46362 5.5509c-0.0171 5.5251-0.71803 8.0586-2.8878 10.438-1.7566 1.9265-1.896 1.9903-2.5413 1.163-0.52751-0.67626-1.0242-0.80022-2.1851-0.54528-1.1821 0.25964-2.1596-0.005-4.5858-1.2351l-3.0834-1.5651-0.892 1.1615c-1.1126 1.4487-1.0241 1.725 1.1037 3.4472 2.1997 1.7804 4.803 1.9463 6.7317 0.42925 0.98225-0.77267 1.5101-0.92381 1.9502-0.55857 0.33188 0.27544 1.209 0.60591 1.9492 0.73438 2.1321 0.37004 2.6468 1.4325 2.3827 4.9186-0.26901 3.5515-0.72525 4.0818-5.415 6.2945-3.8238 1.8042-5.5815 1.5572-6.0327-0.84776-0.3652-1.9467-0.67184-2.0056-2.349-0.45121-3.6707 3.4019-11.304 7.3586-14.16 7.3403-0.58856-0.005-2.3106 0.13274-3.8268 0.30343-2.5788 0.29024-2.8466 0.2241-4.151-1.0256-0.76691-0.73476-1.3944-1.7642-1.3944-2.2877 0-1.5683 4.6873-5.5742 9.2255-7.8844 3.1744-1.616 5.0708-3.0121 7.8024-5.7443 1.9848-1.9852 4.1296-4.3096 4.7664-5.1653l1.1577-1.5558-1.2702-1.0926-1.2703-1.0926-0.0455-9.0231c-0.025-4.9627 0.0719-9.213 0.21535-9.4452 0.14347-0.23214 0.38111-2.7489 0.5281-5.5928s0.36086-6.0696 0.47527-7.1682c0.1144-1.0986 0.0302-2.1073-0.18708-2.2416-0.2173-0.1343-5.9212-0.35252-12.675-0.48493-13.099-0.2568-79.047-0.94168-81.706-0.84853-1.4916 0.0523-1.5666-0.0199-1.266-1.2174 0.17572-0.70013 0.42676-1.3801 0.55788-1.5111 0.18878-0.18862 24.379-0.39729 56.758-0.48961 1.7757-0.005 3.3999 0.0967 3.6092 0.22606 0.20937 0.1294 6.3351 0.26469 13.613 0.30065 7.2777 0.036 14.94 0.2232 17.027 0.4161 2.0874 0.19289 3.972 0.19564 4.1881 0.006 0.3588-0.31473 1.2146-6.4944 1.964-14.181 0.16334-1.6755 0.40565-3.2222 0.53846-3.4371 0.64665-1.0463 0.18551-16.982-0.78962-27.287-0.2847-3.0086-0.34892-7.1169-0.14833-9.4881 0.4997-5.9065 0.49351-14.918-0.011-16.042-0.23413-0.52184-0.90936-1.4397-1.5005-2.0396-1.501-1.5233-1.8722-4.8412-0.9745-8.7118 0.39652-1.7097 0.86071-4.153 1.0315-5.4295 0.17084-1.2765 0.39168-2.4562 0.49076-2.6215 0.48682-0.81231 1.1124-7.6635 1.3803-15.118 0.16414-4.5662 0.5216-10.117 0.79434-12.335 0.27275-2.2178 0.65702-6.3807 0.85393-9.2509 0.1969-2.8702 0.63964-6.8819 0.98385-8.9149 0.47906-2.8295 0.49889-4.0534 0.0845-5.2184-1.4395-4.0474-1.5794-8.192-0.86039-25.479 0.1248-3.0006 0.34874-8.6579 0.49763-12.572 0.27483-7.2243 0.50676-10.895 1.0282-16.274l0.28991-2.9903-2.5486-2.4814c-1.4017-1.3648-3.2958-2.7823-4.209-3.1501-0.91323-0.36775-1.7672-0.80591-1.8976-0.97367-0.57481-0.73918-10.384-3.468-14.469-4.0254-5.5131-0.75212-10.65-2.267-14.913-4.3976-5.2823-2.6403-7.4535-4.6151-8.9798-8.1673-0.61662-1.4351-1.3111-2.9294-1.5433-3.3208-1.1585-1.9527-3.0673-6.3279-4.2427-9.7253-0.72222-2.0874-2.6319-6.784-4.2436-10.437-2.986-6.7675-4.253-10.257-4.2622-11.74-0.0028-0.45592-0.63218-2.1638-1.3986-3.7952-0.76639-1.6315-1.4602-3.6067-1.5418-4.3895-0.14219-1.3638-0.07926-1.4164 1.5084-1.2589 1.6082 0.15952 1.6325 0.13757 0.83021-0.74897-0.4546-0.50229-0.82654-1.3568-0.82654-1.8989 0-0.60777-1.2416-2.1394-3.2387-3.9951-3.1674-2.9433-6.0859-7.0473-5.458-7.6752 0.69909-0.69909 1.4528-0.2184 2.6665 1.7007 1.7003 2.6884 3.389 4.462 5.0824 5.3376 1.7481 0.90395 2.2317 1.8055 2.6466 4.9335 0.31734 2.3922 0.37835 2.477 1.569 2.18 0.68137-0.16992 2.84-1.0092 4.7969-1.8652 3.3523-1.4663 3.5651-1.6493 3.6803-3.1654 0.5019-6.6077 1.2339-9.5704 3.6752-14.876l2.5182-5.4724-1.6795-3.4394c-0.92373-1.8917-1.7308-3.5015-1.7935-3.5773-0.06267-0.07586-2.9161-0.22-6.341-0.32031-5.9198-0.17339-6.227-0.13675-6.227 0.74267 0 0.98142 1.6428 1.8504 3.4982 1.8504 0.58545 0 1.4506 0.28233 1.9225 0.6274 0.81536 0.59621 0.81779 0.70517 0.04876 2.1923-0.80999 1.5663-0.81846 4.6122-0.0195 7.0242 0.55993 1.6904-1.5267 1.4631-2.1775-0.2372-0.6639-1.7347-0.63932-5.0009 0.0473-6.2838 1.191-2.2254-0.11358-1.2961-4.8187 3.4324-5.807 5.8359-9.4228 8.9057-12.022 10.206-2.9828 1.4925-9.7965 2.9674-13.912 3.0114-4.8989 0.0524-8.5058-1.5037-10.386-4.4811-3.4715-5.496-2.1612-17.818 3.1608-29.724 7.4959-16.769 8.721-18.694 17.896-28.117 1.6299-1.674 8.0004-4.6856 12.244-5.7881 4.9184-1.2779 10.632-1.2472 13.412 0.07213 2.2039 1.0458 6.5585 5.4731 7.7284 7.8574 2.6999 5.5024 2.6626 18.332-0.07089 24.407-0.49253 1.0946-0.89549 2.2341-0.89549 2.5321 0 0.84172-3.3488 6.6262-3.8361 6.6262-0.65803 0-0.53626-0.45142 0.69262-2.5675 4.0977-7.0562 4.9293-23.767 1.4541-29.218-1.6004-2.5102-4.6799-5.4927-7.202-6.9753-2.0198-1.1873-2.706-1.3268-6.5267-1.3268-4.8326 0-10.899 1.025-11.687 1.9748-0.28957 0.34891-0.9198 0.63438-1.4005 0.63438-0.48072 0-1.0869 0.39768-1.347 0.88374-0.26013 0.48606-1.0682 1.1415-1.7957 1.4566-2.1436 0.92841-7.7507 7.9577-9.8483 12.346-0.68065 1.4241-1.7194 3.2387-2.3084 4.0324-1.2802 1.7253-6.5808 14.9-7.742 19.243-0.60435 2.2602-0.8289 5.0204-0.84828 10.427l-0.02633 7.3533 1.4232 2.107c1.6411 2.4295 4.8401 4.2912 7.9826 4.6454 3.3655 0.37934 11.663-1.5931 14.996-3.5648 2.8291-1.6736 9.896-7.8154 12.775-11.102l1.5303-1.7474-2.1562-0.95378c-1.6653-0.73664-2.1545-1.2029-2.1489-2.0479 0.01143-1.7215 0.73253-2.4427 2.443-2.4433 8.0186-0.0028 13.699 0.32694 14.108 0.81906 0.89291 1.0759 3.3671 6.4114 3.3684 7.2638 0.000949 0.47125-0.42601 1.7107-0.9483 2.7544-2.2346 4.4654-4.2287 10.638-4.5375 14.046-0.30904 3.4104-0.26953 3.6055 1.1591 5.7223 0.81345 1.2053 1.479 2.3217 1.479 2.4808 0 0.15913 0.54868 1.4091 1.2193 2.7776 0.67061 1.3686 2.073 4.6231 3.1165 7.2323 1.0434 2.6092 2.3856 5.8115 2.9826 7.1161 0.59698 1.3046 1.6782 4.0265 2.4027 6.0487 0.72451 2.0222 1.5721 3.6766 1.8836 3.6766 1.9748 0 12.68 5.1574 18.283 8.8081 2.4788 1.6151 4.9845 3.0828 5.5683 3.2616 1.9347 0.59236 5.3517 2.7132 5.08 3.153-0.46083 0.74562-3.2707 0.47288-5.3178-0.51618-1.0801-0.52185-2.1749-0.94881-2.433-0.94881-0.25803 0-2.243-1.217-4.4112-2.7044-2.1681-1.4874-5.9701-3.7554-8.4489-5.04s-5.1072-2.6517-5.841-3.038c-1.6944-0.89198-2.073-0.503-1.387 1.4248 0.29946 0.84144 0.6813 2.9956 0.84854 4.787 0.42111 4.5107-0.52324 4.0137-1.9833-1.0438-0.62167-2.1533-1.6352-4.9199-2.2524-6.1479-0.61714-1.228-1.2811-2.7664-1.4754-3.4187-0.68838-2.3105-6.4472-16.883-7.7801-19.688-0.74408-1.5655-1.8444-3.9672-2.4451-5.337-0.60072-1.3698-1.349-2.4906-1.6628-2.4906-0.31384 0-2.4944 0.85392-4.8457 1.8976s-4.84 1.8976-5.5304 1.8976c-2.075 0-2.0285 1.6407 0.16201 5.7111 0.21602 0.40142 0.54809 1.6823 0.73794 2.8464 0.35093 2.1519 2.3442 7.2637 4.1324 10.597 0.97359 1.8151 5.1164 11.603 7.2537 17.137 3.1721 8.2141 5.1428 10.871 9.8905 13.335 3.4493 1.7898 10.208 3.5907 18.395 4.901 3.5315 0.56524 9.3739 2.327 11.692 3.5258 0.84785 0.43844 1.5415 0.6026 1.5415 0.36481 0-0.56126-0.93084-2.3219-2.1706-4.1055-1.1758-1.6917-2.3216-4.4358-1.9903-4.767 0.13005-0.13004 1.1728 1.0748 2.3173 2.6774s3.1675 4.2243 4.4956 5.8259 2.3279 3.1682 2.2218 3.4814c-0.19622 0.5789 1.1408 2.6956 3.0726 4.8643 0.58707 0.65907 1.0674 1.3803 1.0674 1.6027 0 0.22243 0.42696 0.94723 0.94881 1.6106 0.52184 0.66342 0.94881 1.3909 0.94881 1.6166 0 0.79499-1.396 0.39892-1.8976-0.53838-0.27928-0.52184-0.66039-0.94867-0.8469-0.94851s-0.35251 3.576-0.36889 7.9463c-0.0164 4.3703-0.18855 9.634-0.38262 11.697-0.52072 5.5358-0.74666 27.695-0.30761 30.169 0.20838 1.1742 0.628 3.309 0.9325 4.744 0.70054 3.3016 1.0446 8.3733 0.68595 10.111-0.24819 1.2027-0.33429 1.2542-0.87033 0.52114-0.89038-1.2177-1.1407-0.37104-1.4255 4.8212-0.14205 2.5898-0.36457 5.5626-0.49448 6.6063s-0.34259 4.9931-0.47262 8.7765c-0.30043 8.7411-1.1002 18.727-1.6719 20.874-1.7801 6.686-2.0596 11.528-0.80766 13.995 0.55128 1.0862 2.2703 2.7741 3.9384 3.8671 0.62858 0.41186 1.1429 1.0217 1.1429 1.3551 0 1.438 2.4476 1.5236 4.9812 0.17415 3.0135-1.605 5.9699-7.3419 5.8639-11.379-0.0683-2.5992 0.79113-4.2171 2.24-4.2171 1.0013 0 1.1817-0.16438 0.91114-0.83021-0.87562-2.1548-1.2112-4.0039-1.4421-7.9463-0.64737-11.053-0.72969-13.167-0.7111-18.265 0.011-3.0006-0.23155-9.8799-0.53887-15.287-0.66267-11.66-0.15225-18.759 1.9876-27.646 1.9468-8.0854 1.724-12.521-1.2154-24.195-0.72271-2.8702-1.6976-6.0724-2.1664-7.1161-1.273-2.8338-3.1074-12.704-2.4046-12.939 0.77653-0.25884 0.70347-1.0563-0.0968-1.0563-0.46296 0-0.72783-0.8736-0.89898-2.965-0.13346-1.6308-0.51457-5.3324-0.84692-8.2258s-0.46821-5.6153-0.30192-6.0487c0.21941-0.57176 0.88441-0.78791 2.4241-0.78791 3.4661 0 3.249-1.4526-0.31292-2.0945-1.9904-0.35865-2.0945-0.56487-1.0427-2.0666 0.40499-0.57821 1.2586-2.2322 1.8969-3.6756l1.1606-2.6243-1.2832-0.48788c-0.70577-0.26833-2.5734-0.74356-4.1504-1.0561-2.8092-0.5567-2.9308-0.53657-6.0197 0.99604-3.7971 1.884-6.5728 2.4742-6.5728 1.3975 0-0.44905 0.58257-0.81201 1.5418-0.96059 2.1785-0.33744 5.4944-1.6412 7.1222-2.8002 1.228-0.87444 1.7158-0.9392 4.3067-0.57185 4.2151 0.59764 12.875 0.30192 14.808-0.50565 1.1756-0.49118 1.7037-0.52858 1.9452-0.13775 0.18235 0.29506 0.11055 0.61014-0.15957 0.70018-1.7347 0.57823-2.0321 1.3479-2.0956 5.4224-0.068 4.368 0.13257 5.144 1.3295 5.144 1.1091 0 7.7908-3.2724 9.0758-4.4449l1.1077-1.0108 0.90414 1.1146c0.49727 0.61301 1.2067 2.1334 1.5765 3.3786 0.76693 2.5825 1.9174 4.9566 3.1987 6.6007 0.48495 0.62226 0.88173 1.4228 0.88173 1.779 0 2.008-3.3708-0.94919-5.2252-4.584-0.52875-1.0364-1.1421-1.8844-1.3631-1.8844-0.22094 0-0.97028 0.85915-1.6652 1.9092l-1.2635 1.9092-0.05 12.812c-0.0275 7.0466 0.0686 12.931 0.21356 13.076 0.14494 0.14494 0.77675-0.76896 1.404-2.0309 0.62727-1.2619 2.459-4.9088 4.0705-8.1042s2.9391-6.1841 2.9501-6.6417c0.0111-0.45752 0.81162-2.2379 1.779-3.9564 1.216-2.1601 1.9786-3.0515 2.4705-2.8879 0.58845 0.19572 0.60756 0.11057 0.11042-0.49195-0.61809-0.74911-0.34009-2.2721 0.41474-2.2721 0.233 0 0.42365-0.35844 0.42365-0.79653 0-1.504 1.1157-3.8805 1.9206-4.091 0.61907-0.16189 0.74867 0.0225 0.55993 0.79663-0.13507 0.554-0.42637 1.2404-0.64734 1.5253-0.57576 0.74241-3.678 9.9099-4.4093 13.03-0.33991 1.4503-1.1491 3.4784-1.7981 4.5068-0.64905 1.0285-1.348 2.4037-1.5532 3.056-0.20524 0.65231-0.78817 1.7197-1.2954 2.372-1.7336 2.2295-4.2994 6.4023-5.8643 9.5372-0.8601 1.723-2.0742 3.7511-2.6981 4.5068-2.2777 2.7592-7.0784 13.379-7.958 17.604-0.22874 1.0987-0.73318 3.2336-1.121 4.744-0.3878 1.5105-0.85025 4.4542-1.0277 6.5416-0.17743 2.0874-0.59901 4.1155-0.93684 4.5068-0.73039 0.84616-1.2813 7.5354-1.1136 13.521 0.0658 2.3483 0.0963 4.9765 0.0677 5.8404-0.0318 0.96243 0.15279 1.5025 0.47671 1.3946 0.50062-0.16688 1.052-2.2224 2.9588-11.03 3.2414-14.972 5.3663-22.48 9.1236-32.236 2.4278-6.3039 5.7055-12.121 6.8296-12.121 0.25335 0 1.0813-1.3834 1.84-3.0742 1.7334-3.8635 4.4437-7.8738 8.8755-13.133 1.9048-2.2603 3.4632-4.218 3.4632-4.3506 0-0.25779-2.6148-0.94437-3.7952-0.99653-1.7312-0.0765-0.45683-1.5513 2.679-3.1005 3.3249-1.6426 3.3965-1.7164 3.6945-3.8098 1.5343-10.778 1.6226-9.6058-1.1258-14.944-1.3434-2.6092-2.5934-4.744-2.7777-4.744-0.18431 0-1.9133 0.93451-3.8422 2.0767-3.051 1.8066-3.8222 2.0632-5.9301 1.9733-1.3326-0.0569-2.7965-0.0974-3.253-0.09-0.45654 0.007-2.2711-0.57494-4.0324-1.2941-2.8443-1.1614-3.4242-1.6309-5.1862-4.2-2.0743-3.0245-3.4719-6.4364-3.4719-8.4762 0-0.66034-0.20977-1.5926-0.46616-2.0716-0.71808-1.3418-1.1486-13.003-0.52318-14.172 0.47142-0.88086 0.30598-1.0726-1.6857-1.9536-2.1752-0.96219-2.1954-0.9914-1.338-1.9388 0.47876-0.52902 1.791-1.3691 2.9162-1.8668 1.1251-0.49771 2.0457-1.1304 2.0457-1.406s0.38508-0.50108 0.85575-0.50108c0.47066 0 1.58-0.74719 2.4651-1.6604 0.88514-0.91323 1.8206-1.6604 2.0787-1.6604 0.25815 0 0.96346-0.46418 1.5674-1.0315 0.6039-0.56733 1.098-0.78081 1.098-0.4744 0 0.3064-0.3736 0.88151-0.83021 1.278-1.8855 1.6373-6.1677 4.8398-7.8498 5.8705-0.99061 0.60703-1.7276 1.3242-1.6377 1.5938 0.0898 0.26956 1.1672 1.0159 2.3941 1.6584 2.6901 1.4089 2.9198 2.2523 0.50666 1.8608l-1.7241-0.27978 0.32558 4.0127c0.17908 2.207 0.61513 5.3471 0.969 6.978 0.35388 1.6309 0.8961 4.1394 1.205 5.5745 0.53842 2.5018 3.2073 7.6627 5.0617 9.7881 0.83197 0.95353 7.7798 3.4952 9.5543 3.4952 0.94795 0 4.6934-1.9236 7.554-3.8797 2.2406-1.5321 6.0482-7.4957 7.3656-11.536 0.7491-2.2975 0.74238-2.4021-0.22049-3.427-0.90477-0.96308-0.92123-1.0848-0.185-1.3673 0.4445-0.17056 1.6389 0.0645 2.6542 0.52232 1.0153 0.45784 2.3915 0.72818 3.0581 0.60074 0.66665-0.12744 1.2121-0.0575 1.2121 0.15541 0 0.21292-0.80056 0.52218-1.779 0.68725-2.928 0.49396-3.4394 0.71937-3.4394 1.516 0 1.2018-2.8628 7.2506-4.6291 9.7807l-1.6077 2.303 1.0095 0.70709c0.55524 0.3889 1.5112 1.8415 2.1244 3.228 1.9443 4.3965 9.7874 13.512 13.751 15.982 2.5249 1.5734 5.956 4.5826 5.956 5.2236 0 0.6724-0.73982 0.40777-3.1209-1.1163-5.2381-3.3528-6.1989-4.098-9.3552-7.2565-3.0834-3.0855-3.3344-3.2388-3.9417-2.4082-0.35677 0.4879-0.76419 1.6506-0.90539 2.5837-0.72481 4.7899-1.3008 6.7514-2.0496 6.9802-0.43414 0.13269-1.16 0.43916-1.6131 0.68104-0.45308 0.24187-1.0935 0.44452-1.4232 0.45032-0.32969 0.006-1.1102 0.40329-1.7346 0.88331l-1.1351 0.87277 1.753 0.32887c0.96418 0.18088 1.8668 0.62529 2.0058 0.98757 0.14623 0.38107-1.337 2.5195-3.5191 5.0737-4.2556 4.9812-7.3222 9.7296-8.9496 13.858-0.60735 1.5406-1.4274 3.2944-1.8224 3.8971-0.39497 0.6028-0.71812 1.4334-0.71812 1.8459 0 0.41242-0.53714 1.287-1.1936 1.9435-1.15 1.15-5.4549 9.6101-6.1299 12.047-0.1807 0.65231-0.82792 2.3602-1.4382 3.7952-0.92652 2.1785-4.1917 14.854-7.6381 29.65-2.4276 10.423-3.0996 17.828-2.8062 30.924 0.13341 5.9532 0.36591 11.464 0.51665 12.247 0.50151 2.6041 1.6506 5.6734 2.7548 7.3586 1.4123 2.1552 12.351 12.373 14.511 13.555 0.91322 0.49973 2.5423 1.6558 3.6201 2.569 2.471 2.0936 11.183 6.4582 13.696 6.861 1.0437 0.16732 3.3668 0.75876 5.1626 1.3143 2.9098 0.9002 3.3964 0.93623 4.4731 0.33122 2.224-1.2497 2.6262-5.3122 2.6745-27.008 0.0356-16.024 0.23484-18.541 1.6854-21.292 0.22252-0.42208 0.53193-1.1716 0.68758-1.6655 0.56313-1.7871 0.58123-0.44059 0.0503 3.7445-0.36438 2.8724-0.43732 8.3836-0.22288 16.841 0.52763 20.811 0.1715 24.368-2.9476 29.437-1.237 2.0103-1.6605 2.3489-2.9458 2.3551-0.82562 0.004-1.747 0.16411-2.0476 0.35581-0.55213 0.35213-1.4283 4.4899-1.229 5.8042 0.0593 0.39138-0.0993 2.5262-0.35256 4.744s-0.68716 6.7351-0.96424 10.038c-0.27708 3.3033-0.58553 6.4305-0.68545 6.9494-0.0999 0.51884-0.32778 3.6869-0.50636 7.0401-0.17857 3.3532-0.38792 6.2035-0.46521 6.334-0.25649 0.43294-0.9176 8.2581-0.93067 11.016l-0.0128 2.7136 7.5905 0.33445c4.1748 0.18394 8.2895 0.3342 9.144 0.33391 1.2379-0.00043 1.6107 0.22735 1.8351 1.1213 0.15486 0.61702 0.11411 10.026-0.0906 20.91-0.20467 10.883-0.39 22.457-0.41184 25.718-0.0218 3.2615-0.19552 6.1695-0.38594 6.4622-0.3282 0.50453 3.488 3.3825 5.4555 4.1142 0.4618 0.17178 2.0629 1.1412 3.558 2.1544 1.4951 1.0131 3.6791 2.3283 4.8532 2.9226 1.1742 0.59424 4.2696 2.6529 6.8789 4.5748 4.7964 3.533 10.071 7.3127 12.966 9.291 0.86906 0.59391 3.1796 2.3607 5.1345 3.9263 1.9549 1.5655 4.9652 3.8505 6.6896 5.0777 2.6718 1.9015 9.0114 7.175 15.694 13.055 1.5821 1.392 1.6421 1.5302 0.67028 1.5418-0.58707 0.007-1.0674-0.20063-1.0674-0.46155zm-88.714-39.166c0-0.11509-0.21348-0.20922-0.47441-0.20922-0.26092 0-0.4744 0.22611-0.4744 0.5024 0 0.27634 0.21348 0.37046 0.4744 0.20921 0.26093-0.16125 0.47441-0.38735 0.47441-0.50239zm-33.26-11c0.026-0.58708-0.17879-1.0674-0.45512-1.0674-0.27632 0-0.38153 0.19555-0.2338 0.4346 0.14772 0.23901 0.0842 0.93282-0.14109 1.5418-0.22533 0.60894-0.29383 1.4274-0.15223 1.8188 0.29068 0.8034 0.90087-0.89117 0.98224-2.7278zm25.895-50.393c0.25094-0.40603 0.0262-3.7827-0.96392-14.481-0.14488-1.5655-0.46756-5.088-0.71707-7.8277s-0.76195-7.3296-1.1388-10.2c-0.37681-2.8702-0.90771-7.7802-1.1798-10.911-0.27206-3.1311-0.75738-7.0805-1.0785-8.7765-0.59139-3.1236-2.1394-6.6779-3.0389-6.9778-0.68602-0.22868-1.85 3.9274-2.3528 8.401-0.0733 0.6523-0.59406 3.2141-1.1572 5.6928-0.56314 2.4788-1.0925 4.9338-1.1763 5.4556-0.94362 5.8745-1.1716 7.5123-1.3854 9.9548-0.38843 4.4357-1.2071 9.5099-2.4504 15.189-0.90318 4.125-2.0641 11.962-2.0885 14.099-0.002 0.18746 3.0382 0.25691 6.7564 0.15434s7.6142-0.0137 8.6579 0.19762c2.6977 0.54608 2.9933 0.54883 3.3134 0.0309zm-15.832-169.47c0.42417-0.79258 0.45789-4.9843 0.13834-17.197-0.23241-8.882-0.42393-22.233-0.4256-29.67l-0.003-13.521-1.8976 0.1078c-3.4658 0.19688-3.706 0.38224-5.5274 4.2648-0.9527 2.0308-1.6339 3.8524-1.5138 4.0481 0.12009 0.1957 0.81311 0.35581 1.54 0.35581 0.72693 0 1.665 0.37939 2.0847 0.84309 1.2682 1.4013 0.0885 3.0833-2.4686 3.5199-1.1405 0.19469-2.1667 0.44711-2.2805 0.56093-0.25923 0.25922 1.1038 11.582 2.0056 16.662 0.70767 3.9856 2.8865 11.506 3.5811 12.361 0.60161 0.74005 2.9292 12.316 3.1665 15.748 0.2155 3.1167 0.66813 3.6589 1.6004 1.917zm3.7112-29.551c0.32801-2.0874 0.69296-4.5424 0.811-5.4556 0.11804-0.91323 0.52453-2.5752 0.90332-3.6932 0.37877-1.118 0.69144-2.3989 0.6948-2.8464 0.003-0.44749 0.43354-2.1772 0.95595-3.8438 0.80628-2.5723 0.86265-3.2713 0.37298-4.6254-0.66769-1.8464-0.53378-1.8107-3.2769-0.87598l-2.1109 0.71926-0.10954 3.4318c-0.15721 4.9253 0.0344 18.421 0.30103 21.198 0.15318 1.5957 0.90037-0.45835 1.4583-4.0087zm112.75 297.3c-0.4954-0.8016 0.10902-52.378 0.61981-52.889 1.3437-1.3438 1.327-1.996 1.0425 40.71-0.0713 10.709-0.52347 14.022-1.6623 12.179zm-11.94-11.352c-0.68888-1.5594-0.91978-47.217-0.24489-48.423 0.81062-1.4485 1.0982 0.62503 0.9659 6.9634-0.18634 8.9241-0.17734 11.098 0.11371 27.478 0.14035 7.8988 0.0922 14.462-0.10699 14.585-0.19919 0.12311-0.52667-0.14854-0.72773-0.60363zm-149.04-21.91c-0.848-0.74501-1.5418-1.4866-1.5418-1.6479 0-0.58067 1.7099-0.27696 2.8206 0.50102 3.3156 2.3224 15.409-0.80659 19.022-4.9216 1.2848-1.4632 2.3718-2.0259 2.3374-1.2098-0.008 0.19569-0.48858 0.88951-1.0674 1.5418-2.862 3.2253-10.485 6.3418-16.708 6.8303-3.1511 0.24735-3.3996 0.19147-4.8626-1.0939zm107.59-6.8972c-0.59704-0.71938-0.5175-14.888 0.14661-26.117 0.91766-15.517 1.1896-18.678 1.6866-19.606 0.83361-1.5576 1.0795-1.247 0.7805 0.9861-0.14848 1.1089-0.37134 5.8589-0.49525 10.556-0.12391 4.6966-0.35667 11.848-0.51726 15.893-0.16058 4.0443-0.32819 9.8477-0.37247 12.896-0.0443 3.0487-0.20639 5.669-0.36026 5.8229s-0.54466-0.0394-0.86842-0.42953zm46.27-17.934c-2.7854-1.8917-5.8959-3.8957-6.9122-4.4534-1.0163-0.55766-2.767-1.7435-3.8904-2.6351-1.1235-0.89169-4.0708-2.8751-6.5496-4.4076s-5.7877-3.7793-7.3533-4.993c-3.2166-2.4936-10.844-7.8281-15.257-10.671-1.6204-1.0437-5.0779-3.3375-7.6832-5.0973s-5.2342-3.3898-5.8419-3.6222c-1.2868-0.49201-3.0468-2.3057-2.6361-2.7164 0.83696-0.83695 6.5454 2.0102 11.033 5.5028 1.573 1.2243 3.0679 2.3129 3.322 2.4191 0.90072 0.37659 9.5022 5.701 11.371 7.0388 2.3408 1.6757 11.224 7.566 13.087 8.6774 0.75259 0.4491 2.7964 1.9435 4.5418 3.3208s4.8215 3.6784 6.8357 5.1135c5.2606 3.7479 12.777 9.4771 12.777 9.739 0 0.90251-2.5272-0.28526-6.8425-3.2159zm15.823-1.1074c-0.34309-0.41339-1.5164-1.3657-2.6072-2.1163-2.1442-1.4752-1.8856-1.4878-7.0003 0.34143-0.99718 0.35661-1.6805 0.43394-1.5185 0.17178 0.16201-0.26211 1.2867-0.76588 2.4992-1.1194 1.2126-0.35357 2.2784-0.86422 2.3686-1.1348 0.0902-0.2705-0.91241-1.2652-2.228-2.2103-1.3156-0.94511-2.392-1.9389-2.392-2.2085 0-1.2011 1.5558-0.83405 4.8011 1.1327 3.5123 2.1286 5.2942 2.43 6.8982 1.1667 0.33391-0.26296 0.65843-0.25954 0.82418 0.009 0.15038 0.24332-0.36432 0.70653-1.1438 1.0294-1.6052 0.66488-1.669 0.84074-0.77832 2.1454 2.1668 3.1739 2.3352 3.545 1.6086 3.545-0.38945 0-0.98879-0.33825-1.3319-0.75164zm10.157-5.5708c-3.1726-2.1325-6.9086-4.7754-8.3021-5.8731-3.5182-2.7714-12.129-11.008-11.532-11.031 0.26952-0.0104 1.0167 0.39866 1.6604 0.90914 0.64372 0.51049 1.8516 1.4178 2.6841 2.0162 0.83255 0.59844 2.9674 2.2766 4.744 3.7292 1.7767 1.4526 3.9241 3.0464 4.7721 3.5417 0.848 0.49535 1.5418 1.0484 1.5418 1.229s1.868 1.5596 4.151 3.0646c5.1445 3.391 7.7091 5.3639 7.7091 5.9304 0 1.0668-2.0652 0.0893-7.4288-3.5159zm-25.21-7.5302c-0.3131-0.31311-0.56928-1.3538-0.56928-2.3127 0-3.4775-0.54539-4.6773-3.5009-7.7016-4.124-4.22-7.9876-6.0729-12.882-6.1782-2.382-0.0512-3.7675-0.28126-3.8888-0.64565-0.53134-1.596 8.4978-5.0428 12.054-4.6016 3.7603 0.4664 7.96 3.7597 9.9663 7.8154 1.3207 2.6697 3.1158 9.3453 2.6958 10.025-0.17587 0.28458 0.0739 0.80525 0.55498 1.157 0.84728 0.61954 0.84583 0.6625-0.0461 1.3675-0.9408 0.74357-2.8394 1.6442-3.4661 1.6442-0.19175 0-0.60482-0.25618-0.91793-0.56928zm2.9966-4.2934c-0.46389-2.3468-3.0245-7.2302-4.5651-8.7062-1.7227-1.6505-1.7095-1.1637 0.0654 2.4083 0.79574 1.6015 1.4083 3.5965 1.4083 4.5866 0 2.6081 0.39379 3.2531 1.9861 3.2531 1.3372 0 1.3944-0.0798 1.1054-1.5418zm-31.8-14.22c-0.78277-0.27752-2.0041-0.91123-2.714-1.4082-1.2165-0.8516-1.4332-0.86137-3.7627-0.16957-2.7622 0.8203-6.095 0.97414-6.095 0.28136 0-0.249 1.4187-0.51585 3.1527-0.59301 2.4049-0.107 3.277-0.34014 3.6766-0.98285 0.43849-0.70519 0.19514-1.1469-1.4923-2.7088-1.8689-1.7299-2.5556-3.4126-1.6268-3.9866 0.21416-0.13235 1.2282 0.49464 2.2534 1.3933 1.0252 0.89869 2.6689 2.2006 3.6527 2.8931l1.7886 1.2591 3.3079-1.2978c1.8194-0.7138 3.5763-1.1976 3.9042-1.0752 0.37586 0.14031 0.24555 0.3426-0.35251 0.5472-2.6211 0.89668-4.9812 2.2142-4.9812 2.7806 0 0.34929 0.53371 1.1365 1.186 1.7493 1.9917 1.8711 1.2044 2.4179-1.8976 1.3181zm69.839-3.4979c-0.10475-0.0928-43.889-0.62953-53.298-0.65332-4.8089-0.0122-5.3031-0.0952-5.5206-0.92701-0.13141-0.50251-1.3427-1.473-2.6917-2.1566-5.1856-2.6277-12.176-7.9371-11.625-8.829 0.31882-0.51587 1.9608 0.37495 7.0919 3.8475 1.8265 1.2361 4.4936 2.9381 5.9271 3.7822 2.5207 1.4844 2.731 1.525 6.4045 1.2385 2.089-0.16293 6.2533-0.29127 9.2539-0.2852 10.2 0.0206 64.747 0.5255 66.6 0.61643 2.1628 0.10615 3.2126 1.2493 2.3704 2.5811-0.47673 0.75376-1.6247 0.83228-12.468 0.85278-6.5684 0.0124-11.988-0.018-12.044-0.0675zm-9.3525-2.0899c0-0.26092-0.21348-0.4744-0.47441-0.4744-0.26092 0-0.4744 0.21348-0.4744 0.4744 0 0.26093 0.21348 0.47441 0.4744 0.47441 0.26093 0 0.47441-0.21348 0.47441-0.47441zm-87.29-1.5646c0-1.2608 0.79928-1.6146 8.7765-3.8858 1.5655-0.44571 4.08-1.2324 5.5877-1.7481 2.8018-0.95843 7.9328-1.7159 7.9328-1.1711 0 0.43131-4.7704 2.6767-5.6868 2.6767-0.42083 0-0.96796 0.17041-1.2158 0.37869-0.24788 0.20828-1.6248 0.76361-3.0599 1.2341-1.4351 0.47045-3.2497 1.1319-4.0324 1.4698-0.78277 0.33796-2.3839 0.75472-3.558 0.92615-1.1742 0.17143-2.7219 0.42396-3.4394 0.56119-0.94044 0.17985-1.3046 0.0566-1.3046-0.44171zm-23.36-82.98c-1.2379-0.85904-2.7778-2.3396-3.4221-3.2903-2.1127-3.1172-3.8938-8.9457-2.7337-8.9457 0.20348 0 0.79056 1.1208 1.3046 2.4906 1.4946 3.9827 6.1044 8.0509 10.858 9.582 1.3333 0.42948 0.30023 1.2397-1.9195 1.5054-1.511 0.18087-2.2354-0.057-4.0872-1.342zm4.6227-9.7328c-1.395-0.3429-2.1348-1.0762-2.1348-2.1159 0-0.83164 0.21597-0.88523 2.2534-0.55917 2.5686 0.41106 3.8788 0.40263 5.6273-0.0362 1.9487-0.4891 1.1686 0.75643-1.2446 1.9871-2.0882 1.065-2.7086 1.1648-4.5012 0.72413zm1.186-11.946c-4.056-1.4375-8.4554-5.2872-7.6084-6.6577 0.55629-0.90011 2.0989-0.23595 5.067 2.1816 2.8708 2.3383 5.551 3.4823 8.1584 3.4823 1.4662 0 1.606 0.0907 1.0078 0.65396-1.0834 1.0199-4.2478 1.1823-6.6247 0.33985zm4.744-8.581c-3.6352-0.92221-6.5123-2.1112-7.6917-3.1785-0.89262-0.8078-1.1397-2.9635-0.42719-3.7273 0.23121-0.24787 1.323-3.3327 2.4261-6.8551 2.8702-9.1647 3.2199-10.424 3.5585-12.809 0.16666-1.1742 0.53941-2.882 0.82832-3.7952 0.28892-0.91323 0.86107-3.323 1.2714-5.355 0.78179-3.871 1.5235-4.8042 1.9439-2.4458 0.48749 2.7347-3.8045 20.51-5.4345 22.507-0.31945 0.39138-0.85304 1.6723-1.1858 2.8464-0.33272 1.1742-1.01 3.0304-1.5051 4.125-0.49506 1.0946-0.90011 2.333-0.90011 2.752 0 0.83872 1.8198 1.7114 6.6063 3.1682 1.7154 0.52209 3.6116 1.2638 4.2138 1.6482 1.7326 1.1061 3.5005 0.656 4.0032-1.0192 0.23489-0.78277 0.61008-1.8502 0.83374-2.372 0.22367-0.52184 0.6566-1.8027 0.96206-2.8464s1.3665-3.6055 2.3578-5.6929c0.99134-2.0874 2.051-4.7559 2.3548-5.93 0.3038-1.1742 1.3743-3.8427 2.3789-5.9301 1.9876-4.1299 3.8118-9.1989 3.7933-10.541-0.006-0.46484-0.44023-2.1261-0.96402-3.6916-0.9839-2.9407-2.5563-10.793-3.325-16.604-0.24159-1.8265-0.84995-5.0287-1.3519-7.1161s-1.0438-4.818-1.204-6.068c-0.16026-1.25-0.50811-3.3848-0.77301-4.744-1.2522-6.4252-2.3603-20.447-1.552-19.639 0.16858 0.16858 0.47939 1.3249 0.6907 2.5697 0.21131 1.2447 0.61066 3.5441 0.88744 5.1096 0.27679 1.5655 0.61743 3.5936 0.75697 4.5068 0.22039 1.4422 0.6999 4.2494 1.4587 8.5393 0.11538 0.65231 0.50886 2.7871 0.8744 4.744 0.36553 1.9569 1.1179 6.2266 1.6719 9.4881 0.55401 3.2615 1.3132 7.2246 1.6872 8.8068 0.37394 1.5822 0.68411 3.2901 0.68926 3.7952 0.005 0.50517 0.64559 2.7228 1.4232 4.9281 0.77762 2.2053 1.4139 4.3483 1.4139 4.7623 0 0.76572-3.8205 10.071-5.5529 13.525-0.5235 1.0437-1.0843 2.5928-1.2463 3.4426-0.27218 1.4281-6.1777 15.97-7.5441 18.577-0.50233 0.95834-0.98823 1.1583-2.9725 1.223-1.3046 0.0426-3.7597-0.27463-5.4556-0.70489zm-0.94647-11.508c0.005-2.228 5.1135-15.107 6.1263-15.445 0.71339-0.23779 0.43781 0.8496-1.0587 4.1777-0.52799 1.1742-0.99038 2.2416-1.0275 2.372-0.0372 0.13046-0.40661 1.0121-0.82097 1.9593-0.41436 0.94715-1.2308 3.1353-1.8142 4.8626-1.1347 3.3592-1.4086 3.7634-1.4048 2.0732zm-30.591-1.3807c-1.2486-1.1443-1.7329-1.9244-1.5273-2.4602 0.46779-1.219 1.0466-0.94618 2.4312 1.146 1.7602 2.6598 1.2979 3.332-0.90386 1.3142zm2.7174-3.9964c-0.848-0.37085-1.5418-0.99388-1.5418-1.3845 0-1.1022 1.0652-0.84419 2.8644 0.69369 1.7682 1.5114 1.2148 1.8005-1.3225 0.69083zm-7.5447-1.2052c-1.0724-0.30007-1.6433-0.84111-2.0162-1.9109-0.8269-2.3721-0.6298-3.2336 1.146-5.0095 1.9158-1.9158 2.4906-1.724 4.0613 1.3547 1.182 2.317 1.1459 2.72-0.40324 4.5-1.1523 1.3239-1.4535 1.4391-2.7878 1.0657zm7.9005-4.9095c0-0.72986 1.4765-1.1832 3.883-1.1921 1.8071-0.007 4.4942 0.7882 4.0765 1.2059-0.13035 0.13035-1.9746 0.3186-4.0982 0.41833-2.9349 0.13782-3.8612 0.0342-3.8612-0.43215zm34.771-11.28c-2.1137-1.4962-3.4599-4.4137-3.4599-7.4983 0-1.9361-0.28247-2.9394-1.2006-4.2642-1.2255-1.7684-2.8106-5.5399-3.58-8.5183-0.42024-1.6266-1.1058-8.1986-0.97733-9.3695 0.0358-0.32615 0.10063-0.90384 0.14412-1.2837 0.17106-1.4944 0.77602-0.1297 1.092 2.4635 0.95842 7.8648 5.742 18.473 9.4846 21.034 1.8366 1.2566 2.9267 2.6702 2.4368 3.16-0.15278 0.15277-0.65307-0.0619-1.1118-0.47697-1.0566-0.95617-3.391-1.8568-3.9376-1.519-0.42597 0.26327 0.26752 2.61 0.90443 3.0606 0.63435 0.44872 2.4381 3.2301 2.4381 3.7595 0 0.77471-0.55821 0.63781-2.233-0.54764zm-22.912-21.695c-4.3736-0.35262-6.6314-1.1566-5.743-2.045 0.38304-0.38304 1.1324-0.31781 2.7788 0.24188 2.7785 0.94456 8.9693 1.4404 10.143 0.81232 0.67295-0.36015 0.80863-0.31277 0.60724 0.21206-0.26714 0.69616-1.7854 1.2792-3.0401 1.1674-0.39138-0.0349-2.527-0.20977-4.7457-0.38866zm-0.94714-3.8842c-3.8898-0.82435-6.9223-2.7668-4.3194-2.7668 0.65738 0 1.4285-1.0838 2.8691-4.0324 1.0835-2.2178 2.1317-4.0324 2.3292-4.0324 0.19754 0 0.88117 1.3863 1.5192 3.0806 0.638 1.6943 1.4092 3.082 1.7138 3.0836 0.30457 0.002 0.92423-0.967 1.377-2.1526 1.1064-2.8971 2.0589-2.6296 3.0977 0.86985 0.44808 1.5094 1.0523 3.0307 1.3427 3.3806 0.36654 0.44166 0.38341 1.0166 0.0551 1.8799-0.45683 1.2016-0.59784 1.242-4.1612 1.1929-2.0286-0.0279-4.649-0.25439-5.8232-0.50322zm8.3061-2.1738c-0.18409-0.45661-0.4496-1.6388-0.59003-2.6271-0.30626-2.1554-0.93448-2.0713-2.1593 0.28888-1.1942 2.3012-0.82255 3.1685 1.358 3.1685 1.4551 0 1.6735-0.13033 1.3914-0.83021zm-6.1536-0.83078c0.01-0.52215 0.18242-1.216 0.3838-1.5418 0.22972-0.37168 0.1046-0.59244-0.33576-0.59244-0.39417 0-0.83896-0.62399-1.0145-1.4232-0.42083-1.916-0.83364-1.7947-2.0176 0.593-1.4362 2.8964-1.4493 3.3112-0.11723 3.7144 1.9245 0.58252 3.0817 0.30268 3.1013-0.74997zm-93.785-7.0119c-1.4565-2.3157-4.9157-7.3648-5.7587-8.4057-1.8551-2.2905-5.1582-7.2708-6.45-9.7253-0.82396-1.5655-1.9464-3.5936-2.4942-4.5068-1.3396-2.233-4.9622-8.9714-6.9888-13-1.8764-3.73-2.2815-7.019-0.89899-7.299 1.1546-0.23384 5.2414 6.2858 8.4121 13.42 4.6887 10.55 5.5744 12.347 7.7772 15.784 2.5367 3.9576 8.5523 15.771 8.0194 15.749-0.19756-0.008-0.92563-0.91554-1.6179-2.0162zm-22.762-15.42c-5.5505-6.2989-16.078-20.742-16.078-22.058 0-0.26759-1.2471-2.5343-2.7714-5.037-1.5243-2.5028-3.6904-6.2584-4.8136-8.3457-1.1232-2.0874-2.5555-4.4891-3.1829-5.3372-2.1582-2.9172-4.8367-11.199-5.1785-16.011-0.22499-3.168-0.18744-3.1155 2.2021 3.0836 1.7424 4.5203 3.4659 7.5875 6.25 11.122 1.7405 2.21 3.6193 5.2832 7.9687 13.035 0.91323 1.6276 2.9221 4.917 4.4641 7.3097s3.4499 5.4177 4.2397 6.7223c1.7291 2.8562 8.8413 17.007 8.6459 17.203-0.07593 0.0759-0.86181-0.68328-1.7464-1.6872zm-26.071-13.5c-1.9399-2.1453-4.6736-4.97-6.0749-6.2772-4.6252-4.3147-8.3488-10.227-10.012-15.897-0.57402-1.9569-1.3109-3.985-1.6376-4.5068-2.0332-3.2482-4.4171-14.001-4.5751-20.637-0.13524-5.6787-0.06896-6.6417 0.45712-6.6417 0.64808 0 1.025 1.3246 1.4851 5.2184 0.34129 2.8886 3.2338 13.087 4.5746 16.13 0.17249 0.39139 0.34502 0.81835 0.38341 0.94881 0.03838 0.13046 0.4499 1.0911 0.91447 2.1348s1.5847 3.819 2.4891 6.1673c1.814 4.71 3.2752 7.4093 5.8273 10.765 3.7278 4.9012 4.7492 6.4408 6.2345 9.3976 0.85193 1.696 2.0619 3.9044 2.6888 4.9075 0.62693 1.0031 1.0572 1.9065 0.95612 2.0076-0.10106 0.10106-1.771-1.5715-3.7109-3.7167zm83.367 1.5468c-2.2587-1.4324-5.0593-5.1609-5.0593-6.7356 0-1.2971 0.64243-1.0296 1.6478 0.68588 0.49698 0.848 2.0714 2.7709 3.4987 4.2732 1.4273 1.5022 2.4923 2.8341 2.3668 2.9597-0.12559 0.12558-1.2299-0.40682-2.454-1.1831zm43.067-35.589c-0.79714-0.24543-1.8934-0.93125-2.4361-1.524-1.1299-1.2341-1.8561-3.2126-1.1792-3.2126 0.25022 0 0.59079 0.54126 0.75682 1.2028 0.33138 1.3203 1.6112 1.982 4.1055 2.1225 3.8386 0.21637 4.6883 0.009 6.1282-1.4981 0.78504-0.82147 1.4273-1.6309 1.4273-1.7988 0-0.16787-2.1882-0.31024-4.8626-0.31638-3.7958-0.009-5.227-0.20331-6.5231-0.88691-2.0104-1.0604-1.172-1.5014 1.3005-0.68409 2.1746 0.71883 9.6893 0.68098 11.066-0.0558 1.15-0.61544 1.0292-0.69483 2.0776 1.3657 0.87812 1.7258 0.68491 2.6989-0.20553 1.0351-0.72239-1.3498-1.4378-1.0364-2.0857 0.91362-0.29142 0.87722-1.1081 2.0236-1.8148 2.5475-1.4633 1.0848-5.4705 1.4927-7.7549 0.78933zm32.997-4.0251c0.32482-0.39138 0.69732-0.71161 0.82778-0.71161s-0.0286 0.32023-0.35338 0.71161c-0.32482 0.39138-0.69732 0.71161-0.82778 0.71161s0.0286-0.32023 0.35338-0.71161zm-2.8464-1.5697c0-0.47198 0.31344-1.2725 0.69652-1.779 0.77291-1.0219 0.949-0.37555 0.42768 1.5697-0.34211 1.2766-1.1242 1.4222-1.1242 0.20928zm4.3226-0.92088c0.537-1.6099 0.89588-1.9788 0.89588-0.92088 0 0.34151-0.31729 1.0353-0.70509 1.5418-0.64507 0.8425-0.66131 0.78965-0.19079-0.62093zm-5.7458-2.358c0-0.94254 0.51781-1.8716 1.6604-2.979 1.2992-1.2592 1.6559-1.9761 1.6394-3.2953l-0.021-1.686-0.9234 1.7483c-0.50788 0.96156-1.1515 1.8892-1.4303 2.0616-0.27878 0.1723-1.9735 0.16598-3.7661-0.014-3.8997-0.39163-4.365-1.033-2.5985-3.582 2.5824-3.7264 3.238-9.5027 1.6526-14.56-1.6993-5.4205-3.073-7.1594-6.6637-8.4358-2.9146-1.036-5.1344-0.98671-7.7545 0.17229-1.2227 0.54084-2.5101 0.8732-2.8609 0.73857-0.35084-0.13463-1.0173-1.0861-1.481-2.1145-0.46371-1.0283-1.0031-1.8697-1.1986-1.8697-0.19552 0-0.79336-0.74212-1.3285-1.6492-0.87806-1.4882-0.9014-1.7208-0.23912-2.3831 3.0698-3.0698 12.715-4.5227 17.96-2.7054 4.3803 1.5176 6.6211 2.9861 10.274 6.7329 4.5863 4.7044 5.3959 6.8682 5.3268 14.237-0.0493 5.2498-1.0582 9.3539-3.1276 12.722l-0.96677 1.5736 1.3284 1.3865c0.73059 0.76257 1.2142 1.5006 1.0747 1.6401-0.13949 0.13949-0.52366-0.0718-0.85371-0.46945-0.33005-0.39769-0.96371-0.72307-1.4081-0.72307-1.0813 0-2.7492 1.8579-2.948 3.2837-0.23702 1.6999-1.3462 1.8398-1.3462 0.16976zm-23.642-9.1978c-0.81733-1.3088-0.0599-3.2278 1.8235-4.6203 1.6553-1.2238 2.6836-0.92743 3.0824 0.88841 0.71578 3.259-3.2956 6.3104-4.9059 3.7319zm-11.147-4.5344c-0.55858-0.55857-0.33776-3.005 0.36905-4.0887 0.37693-0.57789 0.91519-2.1181 1.1961-3.4227 0.54659-2.5382 6.2868-14.396 6.565-13.562 0.0914 0.27432-0.71732 2.2329-1.7972 4.3524s-1.8505 3.9666-1.7125 4.1046c0.13806 0.13806 1.0585 0.33992 2.0454 0.44858 2.3816 0.26222 2.7706 0.73736 2.0425 2.4951-0.61758 1.491-1.1578 1.8062-1.6714 0.9752-0.44762-0.72427-2.9254-0.56485-3.7303 0.24001-1.4174 1.4174-1.4604 2.7027-0.12301 3.6769 1.5422 1.1234 1.5988 2.7004 0.14607 4.0652-1.0692 1.0045-2.692 1.353-3.3298 0.71523zm17.118-4.3418c-1.2394-0.40021-2.2526-0.95686-2.2516-1.237 0.002-0.71321 1.8044-3.5939 2.2447-3.5886 0.51667 0.006 5.344 2.8116 5.344 3.1055 0 0.13437-0.34477 0.77049-0.76617 1.4136-0.85905 1.3111-1.3564 1.3444-4.5709 0.30647zm0.1186-2.5766c0-0.55557-0.69109-0.41736-0.88951 0.1779-0.0978 0.29354 0.0623 0.45365 0.3558 0.3558 0.29354-0.0978 0.53371-0.33801 0.53371-0.5337zm-121.45-17.267c-4.2114-1.3725-5.8791-3.0216-6.463-6.3905-0.46931-2.7079-0.2942-6.398 0.40257-8.4836 0.3051-0.91323 0.57819-1.8739 0.60687-2.1348 0.06463-0.58816 0.52768-1.6997 1.9763-4.744 3.2602-6.8516 10.044-14.944 12.528-14.944 0.47057 0 0.99448-0.22475 1.1642-0.49945 0.16978-0.2747 0.55596-0.41079 0.85821-0.30243 0.30224 0.10835 1.6169-0.18742 2.9216-0.65729 2.3949-0.86253 4.0854-1.1152 6.5855-0.98439 2.1559 0.11282 5.2992 3.5586 5.6912 6.2388 0.35133 2.4024 0.0672 6.1668-0.56237 7.4507-2.9605 6.0374-4.8354 10.048-4.8354 10.343 0 1.4653-6.9988 10.196-8.1734 10.196-0.26844 0-1.3381 0.76793-2.377 1.7065-1.0389 0.93858-2.5591 1.9784-3.3783 2.3108-1.7173 0.69674-5.899 1.2352-6.9451 0.89426zm9.6542-3.658c1.3437-0.92678 3.4343-2.7088 4.6459-3.9599 2.486-2.5673 5.901-8.4527 5.1677-8.9059-0.27586-0.17049 0.41224-1.9287 1.6527-4.2228 1.1689-2.1619 2.1253-4.18 2.1253-4.4847 0-1.3251-1.1661-0.28734-3.8967 3.4677-1.6085 2.2119-3.0055 3.9407-3.1045 3.8417-0.21788-0.21788 2.7155-4.4247 5.1982-7.4549 1.9738-2.4091 2.1274-2.7806 1.1491-2.7806-0.67492 0-3.7512 3.4059-6.3846 7.0686-1.5643 2.1758-2.1126 2.1637-0.66804-0.01485 1.4107-2.1275 4.7919-6.1307 6.2839-7.4399 1.3225-1.1604 1.8892-2.4653 1.0669-2.4565-0.19569 0.0019-1.57 1.1229-3.0541 2.4906-2.6432 2.436-4.5967 4.916-5.2822 6.7057-0.50815 1.3267-0.89326 0.61537-0.5201-0.96073 0.20225-0.85429 2.0101-2.9949 4.8583-5.7526 3.0476-2.9508 4.3792-4.5489 4.058-4.8701-0.47945-0.47945-4.665 3.5703-9.0822 8.7877-1.1045 1.3046-1.8652 1.9451-1.6903 1.4232 0.31358-0.93576 0.3038-0.93638-0.71129-0.04507-1.2901 1.1327-1.3339 0.58197-0.08044-1.0115 1.4772-1.878 1.088-2.4479-0.48831-0.71497-0.8184 0.89969-1.4093 1.2644-1.4093 0.86974 0-0.37376-0.26685-0.78195-0.59301-0.90709-0.40228-0.15435-0.26653-0.4691 0.42205-0.97857 0.55828-0.41307 1.94-1.8557 3.0704-3.2059 2.8617-3.4179 0.85609-2.2286-3.3112 1.9636-2.4223 2.4367-3.8467 4.4204-5.4256 7.5557-2.4906 4.9456-2.9416 6.5372-2.7479 9.6964 0.09754 1.5904-0.02111 2.2103-0.38053 1.9882-0.8661-0.53528-0.60411-5.2156 0.42654-7.6201 1.2172-2.8395 1.1961-3.2424-0.25168-4.8045l-1.2005-1.2953-0.78693 1.1235c-0.43281 0.61792-1.1686 1.5051-1.635 1.9716-1.9541 1.9541-3.1586 7.9271-2.3196 11.502 1.3312 5.6722 9.0665 7.453 14.899 3.4302zm8.1758-11.861c0.16435-0.42829 0.48946-0.77871 0.72247-0.77871 0.61007 0 0.52439 0.27462-0.29882 0.95782-0.60408 0.50134-0.6735 0.472-0.42365-0.17912zm-4.5467-8.8716c0-0.27632-0.21348-0.37046-0.4744-0.2092s-0.4744 0.38734-0.4744 0.5024 0.21348 0.2092 0.4744 0.2092 0.4744-0.22608 0.4744-0.5024zm-11.86-0.948c0-0.27632-0.21348-0.37046-0.4744-0.2092s-0.4744 0.38734-0.4744 0.5024 0.21348 0.2092 0.4744 0.2092 0.4744-0.22608 0.4744-0.5024zm14.707-5.7271c0-0.25129-0.85393 0.22934-1.8976 1.0681-1.0437 0.83873-1.8976 1.7207-1.8976 1.9598 0 0.23918 0.85393-0.24145 1.8976-1.0681 1.0437-0.82662 1.8976-1.7085 1.8976-1.9598zm-7.828-4.207c0.16126-0.26092 0.07971-0.4744-0.18121-0.4744s-0.60634 0.21348-0.7676 0.4744-0.07972 0.4744 0.18121 0.4744c0.26092 0 0.60634-0.21348 0.7676-0.4744zm52.161 28.079c0.19417-0.34238 0.35067-5.2525 0.3478-10.911-0.005-10.205-0.0187-10.341-1.6606-16.693-0.91046-3.5225-1.8953-7.0449-2.1884-7.8277-1.0554-2.818-3.0766-6.1569-4.402-7.2721-1.0772-0.90641-1.2388-1.2728-0.79645-1.8059 0.66689-0.80355 1.8978-0.50452 4.304 1.0456 3.7036 2.3859 8.0714 13.1 8.11 19.893 0.032 5.6465-2.5165 22.775-3.5261 23.699-0.38842 0.3555-0.44152 0.31959-0.18813-0.12723zm12.871-2.9384c0.192-1.6944 0.36661-6.9234 0.38804-11.62 0.0437-9.5767-1.1936-18.335-3.2173-22.773-1.6468-3.6119-0.69822-4.7728 1.8398-2.2516 1.6646 1.6536 2.808 4.3073 3.97 9.2136 1.3822 5.836 1.2042 10.216-0.8411 20.695-1.8098 9.273-2.769 12.293-2.1394 6.7362zm-91.336-33.513c0.01566-0.22256 1.1364-2.2502 2.4906-4.5059 7.7848-12.967 9.4535-15.067 15.55-19.57 1.9801-1.4623 3.7618-2.6587 3.9592-2.6587 0.19742 0 0.95378-0.42357 1.6808-0.94126 1.6338-1.1634 6.5665-2.3641 9.7359-2.3699 2.5079-0.0047 5.9315 0.75612 5.928 1.3172-0.000949 0.18343-1.5903 0.37086-3.5315 0.4165-3.0824 0.07248-4.0386 0.33175-7.5495 2.047-2.211 1.0802-4.1341 2.2613-4.2735 2.6246-0.13942 0.36332-1.086 1.1861-2.1036 1.8285-2.1202 1.3384-6.6437 5.9499-8.7672 8.9377-2.4905 3.5042-13.2 14.013-13.12 12.874zm-12.648-10.011c0.3947-0.71754 1.5882-3.7597 2.6523-6.7603s2.6212-6.8058 3.4602-8.4559c2.0581-4.0477 8.0543-10.773 14.311-16.052 5.8069-4.899 8.0467-5.9022 15.295-6.8508 3.18-0.4162 4.6637-0.41384 6.209 0.00987 2.4383 0.66854 2.2064 1.4613-0.42758 1.4613-6.0019 0-12.084 3.7272-21.714 13.306-4.6291 4.6047-6.0366 6.3751-8.828 11.104-2.2044 3.7348-4.5758 6.957-7.0538 9.5843-3.8169 4.0469-5.1818 4.9743-3.9051 2.6533z" fill="#ffffff"/>
  </g>
  <metadata fill="#ffffff">
    <rdf:RDF fill="#ffffff">
      <cc:Work fill="#ffffff">
        <dc:format fill="#ffffff">image/svg+xml</dc:format>
        <dc:type rdf:resource="http://purl.org/dc/dcmitype/StillImage" fill="#ffffff"/>
        <cc:license rdf:resource="http://creativecommons.org/licenses/publicdomain/" fill="#ffffff"/>
        <dc:publisher fill="#ffffff">
          <cc:Agent rdf:about="http://openclipart.org/" fill="#ffffff">
            <dc:title fill="#ffffff">Openclipart</dc:title>
          </cc:Agent>
        </dc:publisher>
        <dc:title fill="#ffffff">Waving man</dc:title>
        <dc:date fill="#ffffff">2013-08-13T18:59:29</dc:date>
        <dc:description fill="#ffffff">Man with a suitcase waving goodbye (or hello?). Traced from http://thegraphicsfairy.com/retro-clip-art-fathers-day-funny-dads/</dc:description>
        <dc:source fill="#ffffff">https://openclipart.org/detail/181805/waving-man-by-liftarn-181805</dc:source>
        <dc:creator fill="#ffffff">
          <cc:Agent fill="#ffffff">
            <dc:title fill="#ffffff">liftarn</dc:title>
          </cc:Agent>
        </dc:creator>
        <dc:subject fill="#ffffff">
          <rdf:Bag fill="#ffffff">
            <rdf:li fill="#ffffff">goodbye</rdf:li>
            <rdf:li fill="#ffffff">hat</rdf:li>
            <rdf:li fill="#ffffff">hello</rdf:li>
            <rdf:li fill="#ffffff">man</rdf:li>
            <rdf:li fill="#ffffff">retro</rdf:li>
            <rdf:li fill="#ffffff">suitcase</rdf:li>
            <rdf:li fill="#ffffff">travel</rdf:li>
            <rdf:li fill="#ffffff">vintage</rdf:li>
            <rdf:li fill="#ffffff">waving</rdf:li>
          </rdf:Bag>
        </dc:subject>
      </cc:Work>
      <cc:License rdf:about="http://creativecommons.org/licenses/publicdomain/" fill="#ffffff">
        <cc:permits rdf:resource="http://creativecommons.org/ns#Reproduction" fill="#ffffff"/>
        <cc:permits rdf:resource="http://creativecommons.org/ns#Distribution" fill="#ffffff"/>
        <cc:permits rdf:resource="http://creativecommons.org/ns#DerivativeWorks" fill="#ffffff"/>
      </cc:License>
    </rdf:RDF>
  </metadata>
</svg>