<svg xmlns="http://www.w3.org/2000/svg" xmlns:xlink="http://www.w3.org/1999/xlink" version="1.2" baseProfile="tiny" width="197.53mm" height="166.15mm" viewBox="679 1171 19753 16615" preserveAspectRatio="xMidYMid" fill-rule="evenodd" stroke-width="28.222" stroke-linejoin="round" xml:space="preserve">
 <g visibility="visible" id="Slide_1">
  <g id="Drawing_1">
   <path fill="#ffffff" stroke="none" d="M 984,9240 C 1118,9735 1065,10111 681,10328 1079,11039 1479,11749 1878,12460 2417,12159 3487,12543 3873,13229 4232,13868 4053,15069 3515,15371 3907,16068 4299,16763 4691,17460 5075,17244 5561,17331 5789,17784 10573,15094 15352,12408 20136,9718 19963,9365 19931,8890 20430,8610 20039,7913 19647,7216 19255,6521 18501,6944 17543,6250 17241,5714 16867,5051 16990,3963 17619,3610 17219,2899 16819,2188 16419,1477 16074,1672 15685,1644 15332,1173 10548,3862 5769,6550 984,9240 Z"/>
   <rect fill="none" stroke="none" x="679" y="1171" width="19753" height="16615"/>
   <path fill="#000000" stroke="none" d="M 6911,8747 L 6906,8750 C 6810,8814 6746,8901 6715,9010 6682,9128 6698,9246 6762,9362 6841,9500 6944,9587 7073,9620 7165,9643 7288,9640 7445,9612 7577,9593 7675,9587 7737,9592 7840,9607 7908,9645 7942,9705 7975,9764 7975,9825 7942,9887 7919,9936 7863,9984 7778,10032 7683,10085 7611,10110 7564,10107 7508,10104 7457,10068 7414,9999 7392,9960 7361,9942 7319,9942 7286,9942 7253,9954 7219,9981 7188,10002 7169,10030 7162,10063 7152,10100 7165,10136 7199,10172 7246,10217 7284,10270 7317,10332 7344,10384 7364,10437 7376,10493 7387,10536 7412,10566 7454,10580 7488,10587 7524,10581 7563,10563 7600,10542 7625,10513 7639,10475 7650,10433 7645,10399 7625,10370 7622,10387 7642,10387 7687,10370 7703,10365 7737,10349 7788,10328 L 7793,10325 C 7804,10340 7820,10365 7840,10401 7860,10440 7877,10475 7891,10507 7907,10547 7935,10567 7977,10570 8008,10573 8042,10564 8078,10544 8112,10525 8140,10496 8160,10458 8174,10430 8170,10399 8148,10365 8123,10329 8103,10300 8090,10278 8061,10228 8044,10197 8039,10183 8146,10116 8213,10035 8240,9940 8283,9819 8268,9693 8194,9564 8123,9436 8026,9354 7904,9316 7843,9298 7737,9293 7589,9304 7390,9340 7252,9351 7172,9337 7109,9324 7057,9284 7020,9217 6983,9152 6981,9091 7014,9036 7040,8991 7090,8948 7165,8906 7241,8862 7302,8844 7347,8847 7395,8851 7440,8884 7482,8948 7502,8984 7533,9002 7577,9005 7606,9007 7636,8996 7669,8971 7698,8951 7718,8924 7726,8892 7734,8851 7723,8812 7694,8777 7658,8738 7624,8690 7592,8630 7554,8557 7526,8483 7508,8406 7502,8369 7480,8343 7442,8325 7417,8316 7387,8318 7351,8330 7309,8341 7278,8360 7261,8386 7235,8419 7232,8455 7250,8490 7255,8503 7263,8521 7270,8543 7275,8554 7281,8570 7288,8588 L 7292,8591 C 7292,8577 7272,8571 7230,8577 7199,8585 7172,8595 7151,8605 7141,8593 7127,8574 7113,8551 7095,8518 7078,8483 7060,8445 7043,8408 7007,8388 6955,8386 6933,8378 6906,8385 6872,8405 6836,8423 6813,8448 6801,8476 6785,8517 6788,8553 6815,8587 6841,8629 6861,8658 6874,8679 6892,8710 6905,8732 6911,8747 Z"/>
   <path fill="#000000" stroke="none" d="M 8344,8315 L 8951,9394 C 8961,9414 8935,9444 8870,9484 8826,9512 8761,9545 8672,9581 8630,9596 8608,9628 8604,9673 8602,9699 8610,9729 8630,9761 8652,9796 8671,9808 8688,9802 8742,9830 8786,9831 8820,9805 8921,9738 9050,9660 9207,9572 9355,9491 9497,9416 9627,9349 9666,9332 9689,9302 9696,9262 9700,9232 9693,9203 9671,9170 9651,9136 9630,9119 9610,9116 9562,9094 9523,9094 9493,9119 L 9492,9119 C 9394,9190 9327,9234 9291,9250 9241,9274 9212,9278 9199,9257 L 8406,7845 C 8322,7909 8238,7965 8154,8011 8073,8056 7986,8098 7891,8137 7848,8154 7824,8182 7816,8221 7812,8254 7820,8287 7837,8319 7857,8355 7885,8378 7921,8388 7956,8400 7994,8391 8034,8363 8129,8301 8198,8265 8240,8257 8283,8249 8317,8268 8344,8315 Z"/>
   <path fill="#000000" stroke="none" d="M 10369,8755 C 10340,8705 10296,8674 10234,8663 10181,8654 10130,8663 10083,8691 10030,8721 9994,8760 9974,8809 9954,8867 9959,8920 9987,8970 10015,9021 10058,9052 10117,9063 10170,9074 10223,9063 10276,9033 10326,9005 10358,8966 10377,8917 10400,8861 10397,8806 10369,8755 Z"/>
   <path fill="#000000" stroke="none" d="M 10337,6712 C 10156,6815 10074,6974 10089,7188 10083,7406 10150,7638 10288,7885 10425,8128 10578,8304 10747,8414 10945,8540 11133,8551 11314,8450 11491,8350 11578,8182 11573,7949 11570,7747 11500,7523 11363,7280 11226,7036 11071,6858 10900,6750 10702,6625 10516,6613 10337,6712 Z M 10469,6946 C 10562,6893 10673,6918 10799,7020 10900,7100 11002,7233 11108,7422 11212,7610 11275,7769 11290,7898 11312,8058 11276,8164 11183,8217 11088,8269 10981,8249 10861,8151 10755,8066 10648,7929 10542,7739 10436,7551 10374,7387 10355,7251 10335,7101 10372,7000 10469,6946 Z"/>
   <path fill="#000000" stroke="none" d="M 11657,5970 C 11477,6071 11395,6230 11410,6446 11404,6664 11471,6896 11609,7143 11746,7386 11899,7562 12068,7671 12266,7797 12454,7809 12634,7708 12812,7607 12899,7440 12894,7207 12891,7003 12821,6781 12684,6538 12547,6292 12392,6116 12221,6008 12023,5883 11836,5871 11657,5970 Z M 11790,6204 C 11883,6151 11993,6176 12119,6278 12221,6356 12323,6490 12429,6680 12533,6866 12594,7025 12611,7156 12633,7316 12597,7422 12504,7475 12409,7527 12301,7506 12182,7409 12076,7324 11969,7185 11863,6997 11757,6807 11695,6645 11676,6508 11656,6359 11693,6256 11790,6204 Z"/>
   <path fill="#000000" stroke="none" d="M 7322,12319 L 7949,13433 C 7958,13450 7947,13467 7918,13486 7893,13501 7849,13520 7792,13538 7748,13552 7723,13580 7715,13622 7712,13651 7720,13680 7737,13713 7756,13747 7785,13770 7824,13784 7851,13798 7880,13795 7914,13773 7988,13728 8084,13672 8201,13607 8319,13542 8414,13489 8489,13451 8531,13433 8557,13405 8566,13366 8576,13330 8569,13294 8549,13258 8531,13224 8504,13202 8468,13190 8429,13179 8392,13188 8358,13218 L 8328,13240 C 8277,13282 8244,13305 8230,13310 8218,13314 8208,13308 8199,13293 L 7572,12177 C 7558,12152 7554,12134 7560,12121 7569,12104 7600,12082 7652,12053 7700,12026 7737,12014 7760,12017 7790,12022 7823,12051 7858,12104 7891,12156 7924,12213 7958,12275 7986,12328 8009,12376 8031,12420 8047,12464 8076,12488 8120,12495 8154,12501 8191,12495 8229,12473 8266,12451 8291,12426 8300,12398 8322,12352 8317,12310 8289,12269 8236,12199 8177,12112 8112,12006 8062,11922 8008,11829 7950,11726 7924,11675 7896,11647 7862,11644 7837,11641 7801,11653 7754,11686 7608,11773 7443,11868 7261,11970 7082,12072 6936,12151 6824,12208 6762,12235 6726,12264 6718,12297 6712,12322 6723,12358 6752,12406 6783,12462 6824,12538 6872,12635 6937,12764 6992,12879 7036,12982 7051,13022 7079,13047 7121,13055 7154,13062 7190,13058 7224,13038 7261,13017 7284,12989 7295,12957 7309,12918 7302,12880 7275,12843 L 7232,12776 C 7208,12737 7186,12700 7168,12666 7141,12619 7120,12576 7101,12535 7073,12471 7062,12429 7070,12411 7081,12384 7115,12355 7172,12322 7222,12294 7258,12280 7280,12280 7294,12280 7308,12294 7322,12319 Z"/>
   <path fill="#000000" stroke="none" d="M 8559,11558 L 9218,12730 C 9224,12740 9210,12758 9178,12779 9147,12798 9106,12815 9055,12831 9014,12848 8991,12882 8986,12935 8977,12954 8983,12980 9002,13014 9021,13048 9045,13072 9075,13084 9114,13097 9153,13090 9190,13062 9283,13003 9383,12943 9489,12884 9595,12824 9685,12778 9759,12744 9803,12725 9829,12695 9840,12656 9848,12621 9843,12586 9825,12552 9805,12518 9775,12495 9738,12484 9703,12473 9666,12482 9626,12513 9584,12548 9549,12571 9523,12585 9493,12599 9475,12600 9469,12588 L 8809,11417 C 8806,11409 8809,11399 8820,11390 8831,11379 8859,11362 8902,11339 L 8955,11312 C 8999,11294 9025,11267 9033,11235 9045,11196 9041,11158 9021,11123 9002,11088 8975,11067 8940,11056 8901,11043 8862,11051 8825,11081 8748,11130 8653,11188 8541,11250 8428,11314 8333,11364 8255,11399 8212,11417 8185,11446 8177,11488 8173,11519 8179,11552 8198,11585 8218,11619 8238,11639 8258,11642 8306,11662 8348,11659 8386,11633 L 8418,11611 C 8464,11585 8496,11567 8517,11563 8541,11552 8555,11550 8559,11558 Z"/>
   <path fill="#000000" stroke="none" d="M 10940,11530 C 10953,11619 10937,11709 10892,11804 10850,11857 10785,11908 10699,11956 10567,12031 10428,12025 10284,11941 10150,11860 10029,11726 9923,11536 9814,11343 9761,11179 9764,11042 9789,10874 9865,10752 9996,10679 10061,10642 10133,10625 10209,10628 10299,10631 10374,10671 10432,10745 L 10573,10920 C 10595,10950 10626,10964 10665,10962 10698,10961 10727,10947 10757,10922 10785,10897 10802,10869 10810,10836 10819,10802 10810,10769 10782,10738 10702,10659 10637,10578 10584,10493 10533,10410 10495,10326 10470,10239 10458,10203 10433,10183 10394,10178 10368,10178 10337,10186 10302,10205 10267,10219 10239,10237 10222,10261 10194,10292 10186,10320 10201,10346 L 10215,10373 C 10167,10360 10113,10360 10050,10376 9980,10391 9914,10418 9850,10455 9643,10570 9523,10735 9489,10950 9456,11166 9515,11409 9668,11679 9820,11949 9987,12120 10169,12188 10394,12310 10615,12310 10831,12188 10964,12115 11060,12030 11124,11931 11205,11807 11237,11659 11222,11487 11214,11438 11194,11399 11158,11371 11130,11351 11097,11345 11057,11351 11018,11356 10996,11367 10993,11382 10946,11431 10929,11480 10940,11530 Z"/>
   <path fill="#000000" stroke="none" d="M 11074,10166 L 11721,11317 C 11726,11323 11726,11328 11724,11329 11718,11337 11701,11348 11676,11361 L 11629,11384 C 11594,11396 11577,11424 11575,11468 11575,11493 11584,11521 11603,11552 11620,11585 11642,11608 11665,11622 11698,11641 11731,11639 11762,11617 11821,11578 11891,11536 11972,11491 12054,11445 12132,11403 12208,11367 12241,11354 12259,11328 12264,11287 12266,11261 12258,11231 12238,11197 12221,11166 12193,11141 12155,11121 12130,11105 12104,11110 12077,11133 L 12059,11146 C 12029,11166 12009,11179 11995,11183 11984,11186 11976,11185 11972,11175 L 11802,10874 11847,10561 C 11984,10598 12109,10656 12222,10731 12347,10813 12462,10927 12569,11074 12594,11109 12628,11119 12672,11107 12701,11098 12746,11073 12809,11031 12841,11012 12865,10997 12880,10984 12908,10969 12936,10955 12964,10942 12994,10925 13009,10902 13009,10872 13011,10832 13003,10794 12986,10762 12967,10731 12947,10709 12924,10698 12886,10681 12855,10685 12829,10710 12812,10724 12792,10738 12764,10751 12736,10765 12715,10766 12704,10755 12581,10633 12455,10533 12325,10460 12196,10385 12051,10331 11894,10296 L 12014,9640 C 12021,9607 12028,9590 12029,9589 12034,9582 12053,9572 12088,9556 12124,9539 12141,9516 12143,9488 12152,9444 12147,9405 12129,9372 12112,9340 12090,9318 12065,9309 12023,9293 11986,9299 11955,9324 11889,9366 11819,9408 11741,9452 11667,9494 11605,9526 11555,9548 11522,9561 11507,9589 11505,9629 11507,9654 11516,9682 11535,9713 11552,9744 11570,9766 11591,9780 11625,9800 11656,9802 11682,9785 11699,9769 11709,9763 11712,9763 11710,9760 11707,9761 11703,9769 L 11601,10427 11615,10541 11326,10026 C 11318,10012 11318,10001 11323,9993 11328,9982 11342,9974 11363,9967 11409,9950 11437,9923 11446,9887 11458,9845 11454,9805 11433,9768 11413,9733 11385,9712 11348,9701 11307,9690 11269,9701 11233,9735 11163,9780 11094,9820 11030,9856 10967,9892 10900,9928 10830,9962 10794,9974 10775,10001 10775,10041 10777,10069 10786,10100 10805,10133 10824,10167 10850,10192 10884,10211 10908,10225 10934,10219 10962,10194 10996,10172 11023,10160 11043,10155 11058,10152 11069,10155 11074,10166 Z"/>
   <path fill="#000000" stroke="none" d="M 12642,9312 L 13241,10379 C 13261,10415 13268,10441 13258,10460 13249,10480 13227,10496 13193,10507 13157,10517 13137,10541 13135,10577 13132,10606 13140,10637 13159,10671 13177,10704 13199,10727 13224,10741 13258,10762 13291,10762 13322,10740 13404,10687 13555,10598 13773,10475 13991,10353 14198,10240 14391,10139 14430,10118 14447,10090 14444,10055 14442,10015 14419,9974 14378,9932 14352,9906 14321,9862 14285,9803 14262,9764 14235,9713 14204,9649 14189,9618 14162,9601 14122,9598 14094,9598 14062,9607 14031,9626 13997,9645 13980,9660 13980,9673 13947,9719 13943,9757 13964,9785 13994,9825 14020,9866 14044,9908 14066,9946 14081,9976 14091,10001 L 13535,10314 13247,9802 13504,9657 C 13504,9659 13504,9659 13504,9660 13509,9666 13518,9690 13534,9727 L 13557,9780 C 13571,9813 13596,9833 13632,9838 13666,9839 13698,9831 13731,9813 13764,9794 13786,9772 13800,9746 13814,9710 13810,9679 13792,9651 13753,9606 13698,9520 13630,9394 13576,9298 13540,9225 13523,9175 13512,9145 13488,9133 13453,9134 13426,9136 13397,9145 13366,9162 13334,9181 13310,9203 13291,9228 13271,9256 13271,9281 13291,9306 L 13317,9341 C 13344,9380 13361,9404 13367,9414 13370,9422 13372,9425 13373,9424 L 13117,9568 12863,9117 13397,8817 C 13411,8833 13434,8868 13467,8923 13496,8976 13520,9026 13538,9069 13551,9102 13577,9119 13616,9119 13646,9120 13678,9111 13712,9091 13747,9072 13770,9050 13784,9027 13807,8990 13807,8957 13786,8926 13756,8889 13722,8834 13683,8760 13649,8702 13622,8640 13600,8573 L 13599,8570 C 13580,8515 13558,8483 13535,8472 13506,8456 13456,8472 13390,8517 13243,8604 13061,8710 12840,8834 12622,8957 12471,9038 12387,9080 12353,9094 12336,9119 12336,9156 12334,9187 12342,9218 12359,9248 12378,9279 12399,9302 12427,9316 12457,9332 12487,9330 12516,9312 L 12525,9304 C 12561,9284 12586,9274 12599,9274 12613,9273 12627,9285 12642,9312 Z"/>
   <path fill="#000000" stroke="none" d="M 14439,8316 L 15066,9430 C 15075,9447 15064,9466 15035,9483 15010,9500 14968,9517 14909,9536 14865,9550 14840,9578 14834,9620 14829,9648 14837,9679 14856,9710 14875,9744 14903,9768 14941,9782 14968,9796 14997,9792 15032,9771 15106,9726 15201,9671 15318,9604 15436,9539 15533,9486 15606,9449 15648,9432 15674,9402 15684,9363 15693,9327 15687,9292 15668,9257 15648,9223 15621,9200 15586,9189 15547,9176 15509,9186 15475,9217 L 15445,9239 C 15394,9279 15361,9302 15347,9309 15337,9312 15326,9306 15316,9290 L 14689,8175 C 14675,8150 14672,8131 14677,8119 14688,8101 14717,8080 14769,8050 14817,8024 14854,8011 14878,8016 14909,8019 14941,8049 14976,8101 15008,8153 15041,8210 15075,8274 15103,8325 15127,8374 15148,8419 15164,8461 15193,8486 15239,8492 15273,8500 15309,8492 15346,8470 15383,8450 15408,8423 15417,8395 15439,8349 15435,8307 15407,8268 15354,8198 15295,8109 15229,8003 15179,7921 15125,7828 15067,7723 15043,7672 15013,7644 14980,7643 14955,7638 14918,7652 14871,7683 14725,7772 14560,7867 14378,7968 14199,8069 14053,8148 13941,8206 13879,8232 13845,8262 13837,8294 13831,8319 13842,8355 13870,8403 13902,8459 13941,8535 13989,8632 14055,8761 14109,8876 14153,8979 14168,9021 14198,9044 14238,9054 14273,9061 14307,9055 14343,9035 14378,9015 14403,8988 14413,8954 14427,8915 14419,8878 14392,8840 L 14349,8774 C 14325,8735 14305,8699 14285,8663 14259,8616 14237,8573 14220,8532 14190,8469 14179,8427 14187,8408 14198,8381 14232,8352 14290,8321 14339,8293 14375,8277 14397,8277 14411,8279 14425,8291 14439,8316 Z"/>
  </g>
 </g>
</svg>